<svg xmlns="http://www.w3.org/2000/svg" viewBox="0 0 24 24" fill="none" color="#c5c5c5">
  <path
    d="M18.7 5.2A8.4 8.4 0 0 0 4.4 11c0 2 .7 3.8 1.9 5.2"
    stroke="currentColor"
    stroke-width="1.8"
    stroke-linecap="round"
  />
  <path
    d="M5.3 18.8A8.4 8.4 0 0 0 19.6 13c0-2-.7-3.8-1.9-5.2"
    stroke="currentColor"
    stroke-width="1.8"
    stroke-linecap="round"
  />
  <path d="M17.6 3.7v3.9h3.9" stroke="currentColor" stroke-width="1.8" stroke-linecap="round" stroke-linejoin="round" />
  <path d="M6.4 20.3v-3.9H2.5" stroke="currentColor" stroke-width="1.8" stroke-linecap="round" stroke-linejoin="round" />
  <path d="M7.7 11.1h8.6" stroke="currentColor" stroke-width="1.5" stroke-linecap="round" />
  <path d="M8.7 8.9v6.2" stroke="currentColor" stroke-width="1.5" stroke-linecap="round" />
  <path d="M12 8.1v7.8" stroke="currentColor" stroke-width="1.5" stroke-linecap="round" />
  <path d="M15.3 8.9v6.2" stroke="currentColor" stroke-width="1.5" stroke-linecap="round" />
  <path d="M7.5 15.1h9" stroke="currentColor" stroke-width="1.5" stroke-linecap="round" />
  <path d="M11.1 12.1a.9.9 0 1 1 1.8 0c0 .3-.1.5-.4.7l.5 1.5h-2l.5-1.5a.9.9 0 0 1-.4-.7Z" fill="currentColor" />
</svg>
