<?xml version="1.0" encoding="UTF-8"?>
<svg xmlns="http://www.w3.org/2000/svg" viewBox="0 0 256 256" width="256" height="256" role="img" aria-label="Critical Gate icon">
  <title>Critical Gate icon</title>
  <path fill="#000000" fill-rule="evenodd" d="
    M 198 50 L 197 50 L 195 52 L 194 52 L 193 53 L 191 53 L 190 54 L 184 54 L 183 53 L 181 53 L 180 52 L 178 52 L 177 51 L 175 51 L 174 50 L 172 50 L 171 49 L 169 49 L 168 48 L 166 48 L 165 47 L 163 47 L 162 46 L 159 46 L 158 45 L 154 45 L 153 44 L 147 44 L 146 43 L 121 43 L 120 44 L 115 44 L 114 45 L 110 45 L 109 46 L 107 46 L 106 47 L 103 47 L 100 49 L 98 49 L 97 50 L 95 50 L 94 51 L 93 51 L 92 52 L 91 52 L 90 53 L 89 53 L 88 54 L 85 55 L 83 57 L 80 58 L 78 60 L 77 60 L 74 63 L 73 63 L 65 71 L 64 71 L 64 72 L 59 77 L 59 78 L 56 81 L 56 82 L 54 84 L 54 85 L 53 86 L 53 87 L 52 88 L 52 89 L 51 90 L 51 91 L 48 96 L 48 98 L 47 99 L 47 101 L 46 102 L 46 105 L 45 106 L 45 110 L 44 111 L 44 122 L 43 123 L 43 126 L 44 127 L 44 137 L 45 138 L 45 142 L 46 143 L 46 146 L 47 147 L 47 149 L 49 152 L 49 154 L 50 155 L 50 156 L 51 157 L 51 158 L 52 159 L 53 162 L 55 164 L 55 165 L 57 167 L 57 168 L 59 170 L 59 171 L 60 171 L 61 172 L 61 173 L 72 184 L 73 184 L 76 187 L 77 187 L 79 189 L 80 189 L 82 191 L 83 191 L 84 192 L 84 125 L 61 125 L 60 126 L 58 124 L 59 123 L 86 123 L 87 122 L 87 117 L 86 116 L 87 115 L 89 115 L 91 117 L 91 126 L 90 127 L 86 127 L 86 131 L 90 131 L 91 132 L 91 155 L 90 156 L 89 155 L 89 154 L 87 152 L 87 151 L 86 151 L 86 192 L 87 193 L 88 193 L 89 194 L 90 194 L 95 197 L 97 197 L 98 198 L 100 198 L 101 199 L 103 199 L 104 200 L 107 200 L 108 201 L 112 201 L 113 202 L 125 202 L 126 203 L 130 203 L 131 202 L 141 202 L 142 201 L 146 201 L 147 200 L 151 200 L 152 199 L 154 199 L 155 198 L 157 198 L 160 196 L 162 196 L 163 195 L 164 195 L 165 194 L 166 194 L 167 193 L 170 192 L 172 190 L 173 190 L 175 188 L 176 188 L 179 185 L 180 185 L 189 176 L 189 175 L 193 170 L 195 172 L 195 173 L 196 174 L 196 125 L 176 125 L 176 168 L 177 168 L 178 169 L 176 171 L 175 171 L 174 170 L 174 166 L 171 166 L 170 165 L 170 132 L 171 131 L 174 131 L 174 127 L 171 127 L 170 126 L 170 117 L 171 116 L 172 116 L 173 117 L 173 123 L 200 123 L 200 116 L 175 116 L 174 115 L 175 114 L 179 114 L 180 113 L 180 112 L 177 112 L 176 111 L 173 111 L 170 109 L 170 105 L 171 104 L 171 101 L 169 98 L 169 96 L 168 96 L 168 97 L 165 102 L 165 104 L 166 105 L 165 106 L 164 106 L 160 102 L 159 102 L 158 101 L 158 97 L 159 96 L 159 94 L 158 93 L 158 92 L 157 91 L 156 88 L 155 88 L 155 89 L 154 90 L 154 92 L 153 93 L 153 95 L 152 96 L 150 94 L 147 93 L 145 91 L 145 88 L 146 87 L 146 84 L 145 83 L 145 81 L 144 80 L 143 77 L 142 77 L 142 79 L 141 80 L 141 82 L 139 85 L 139 87 L 140 87 L 141 88 L 141 89 L 140 90 L 138 90 L 137 89 L 133 89 L 132 88 L 133 87 L 133 85 L 134 84 L 134 80 L 133 79 L 133 77 L 132 76 L 132 74 L 131 73 L 130 73 L 130 74 L 129 75 L 129 77 L 127 80 L 127 84 L 128 84 L 129 85 L 129 88 L 128 89 L 124 89 L 123 90 L 121 90 L 120 89 L 120 88 L 121 87 L 122 87 L 122 85 L 121 84 L 121 82 L 119 79 L 119 77 L 118 77 L 117 78 L 117 80 L 115 83 L 115 87 L 116 88 L 116 91 L 114 93 L 113 93 L 110 95 L 108 93 L 108 92 L 107 91 L 106 88 L 105 88 L 105 89 L 104 90 L 104 92 L 102 95 L 102 96 L 103 96 L 104 97 L 104 100 L 103 101 L 102 101 L 97 106 L 96 106 L 95 105 L 96 104 L 96 101 L 95 100 L 94 97 L 93 96 L 92 96 L 92 98 L 91 99 L 91 101 L 90 102 L 90 104 L 91 105 L 91 109 L 90 110 L 88 110 L 87 111 L 85 111 L 84 112 L 81 112 L 81 113 L 82 114 L 85 114 L 86 115 L 85 116 L 62 116 L 61 115 L 62 114 L 63 114 L 63 109 L 66 106 L 67 106 L 68 107 L 65 110 L 65 114 L 78 114 L 78 110 L 76 108 L 75 108 L 71 104 L 68 107 L 67 106 L 67 105 L 71 101 L 72 101 L 73 102 L 73 103 L 75 105 L 76 105 L 76 102 L 78 99 L 78 97 L 79 96 L 79 95 L 80 94 L 80 93 L 81 92 L 81 91 L 82 90 L 83 87 L 86 84 L 86 83 L 97 72 L 98 72 L 100 70 L 101 70 L 102 69 L 103 69 L 104 68 L 105 68 L 110 65 L 112 65 L 113 64 L 116 64 L 117 63 L 121 63 L 122 62 L 139 62 L 140 63 L 144 63 L 145 64 L 148 64 L 149 65 L 151 65 L 152 66 L 154 66 L 155 67 L 156 67 L 157 68 L 160 69 L 165 73 L 166 73 L 179 86 L 179 87 L 183 92 L 183 93 L 184 94 L 184 95 L 185 96 L 185 97 L 186 98 L 186 99 L 187 100 L 187 101 L 190 106 L 190 107 L 189 108 L 188 107 L 187 107 L 185 109 L 184 109 L 183 110 L 183 114 L 192 114 L 192 110 L 193 109 L 193 98 L 194 97 L 194 88 L 195 87 L 195 77 L 196 76 L 196 66 L 197 65 L 197 55 L 198 54 Z
    M 146 125 L 147 126 L 148 126 L 151 128 L 153 128 L 154 129 L 154 165 L 153 166 L 146 166 L 145 165 L 145 126 Z
    M 103 130 L 104 131 L 104 165 L 103 166 L 101 166 L 101 167 L 100 168 L 94 162 L 94 161 L 93 160 L 94 159 L 95 159 L 95 132 L 96 131 L 100 131 L 101 130 Z
    M 115 125 L 116 126 L 116 165 L 115 166 L 109 166 L 108 165 L 108 129 L 109 128 L 110 128 Z
    M 159 130 L 160 131 L 166 131 L 167 132 L 166 133 L 166 165 L 165 166 L 159 166 L 158 165 L 158 131 Z
    M 128 181 L 129 180 L 133 180 L 133 172 L 132 171 L 133 170 L 140 170 L 141 171 L 141 180 L 145 180 L 145 171 L 146 170 L 153 170 L 154 171 L 154 179 L 155 180 L 154 181 L 149 181 L 148 182 L 129 182 Z
    M 146 99 L 147 99 L 149 101 L 150 101 L 154 105 L 154 123 L 153 124 L 150 123 L 145 119 L 145 100 Z
    M 128 95 L 129 96 L 129 114 L 128 115 L 126 115 L 125 116 L 123 116 L 122 117 L 121 117 L 120 116 L 120 97 L 121 96 L 124 96 L 125 95 Z
    M 121 145 L 124 148 L 126 148 L 129 150 L 129 165 L 128 166 L 121 166 L 120 165 L 120 146 Z
    M 115 99 L 116 100 L 116 119 L 114 121 L 113 121 L 112 122 L 109 123 L 108 122 L 108 104 L 110 102 L 111 102 L 113 100 L 114 100 Z
    M 134 95 L 137 95 L 138 96 L 140 96 L 141 97 L 141 116 L 140 117 L 139 116 L 137 116 L 136 115 L 133 115 L 132 114 L 133 113 L 133 96 Z
    M 140 145 L 141 146 L 141 165 L 140 166 L 134 166 L 133 165 L 133 151 L 132 150 L 135 148 L 137 148 Z
    M 103 108 L 104 109 L 104 125 L 103 126 L 98 126 L 97 127 L 96 127 L 95 126 L 95 115 L 98 112 L 99 112 Z
    M 159 109 L 162 112 L 163 112 L 165 114 L 166 114 L 167 115 L 166 116 L 166 126 L 165 127 L 164 127 L 163 126 L 159 126 L 158 125 L 158 110 Z
    M 121 170 L 128 170 L 129 171 L 129 180 L 128 181 L 124 181 L 123 180 L 120 180 L 119 179 L 120 178 L 120 171 Z
    M 157 178 L 158 177 L 158 171 L 159 170 L 166 170 L 167 171 L 166 172 L 166 174 L 167 174 L 168 175 L 167 176 L 166 176 L 163 178 L 161 178 L 160 179 L 158 179 Z
    M 108 171 L 109 170 L 115 170 L 116 171 L 116 176 L 117 177 L 116 178 L 115 178 L 114 177 L 113 177 L 112 176 L 109 175 L 107 173 L 108 172 Z
    M 126 120 L 127 119 L 134 119 L 135 120 L 134 121 L 127 121 Z
    M 134 121 L 135 120 L 137 120 L 138 121 L 139 121 L 141 123 L 141 124 L 140 125 L 138 123 L 137 123 Z
    M 127 121 L 126 122 L 123 123 L 121 125 L 120 124 L 120 123 L 122 121 L 123 121 L 124 120 L 126 120 Z
    M 169 173 L 171 170 L 174 170 L 175 171 L 173 173 L 172 173 L 171 174 L 170 174 Z
    M 58 116 L 59 117 L 59 123 L 58 124 L 57 123 L 57 117 Z
    M 101 169 L 102 168 L 103 168 L 105 170 L 104 171 L 103 171 Z
    M 91 157 L 92 156 L 94 158 L 94 159 L 93 160 L 91 158 Z
    M 116 178 L 117 177 L 119 177 L 120 178 L 119 179 L 117 179 Z
    M 155 179 L 156 178 L 157 178 L 158 179 L 157 180 L 156 180 Z
    M 167 174 L 168 173 L 169 173 L 170 174 L 169 175 L 168 175 Z
    M 105 172 L 106 171 L 107 171 L 108 172 L 107 173 L 106 173 Z
    M 177 168 L 178 167 L 179 167 L 180 168 L 179 169 L 178 169 Z
    M 189 166 L 190 165 L 191 166 L 191 167 L 190 168 L 189 167 Z
    M 180 166 L 181 165 L 182 165 L 183 166 L 182 167 L 181 167 Z
    M 183 164 L 184 163 L 185 163 L 186 164 L 185 165 L 184 165 Z
    M 190 109 L 191 108 L 192 108 L 193 109 L 192 110 L 191 110 Z
    M 104 171 L 105 170 L 106 171 L 105 172 Z
    M 191 170 L 192 169 L 193 170 L 192 171 Z
    M 190 168 L 191 167 L 192 168 L 191 169 Z
    M 100 168 L 101 167 L 102 168 L 101 169 Z
    M 179 167 L 180 166 L 181 167 L 180 168 Z
    M 188 165 L 189 164 L 190 165 L 189 166 Z
    M 182 165 L 183 164 L 184 165 L 183 166 Z
    M 187 163 L 188 162 L 189 163 L 188 164 Z
    M 185 163 L 186 162 L 187 163 L 186 164 Z
    M 186 162 L 187 161 L 188 162 L 187 163 Z
    M 90 156 L 91 155 L 92 156 L 91 157 Z
    M 172 116 L 173 115 L 174 116 L 173 117 Z
    M 189 108 L 190 107 L 191 108 L 190 109 Z
    M 165 106 L 166 105 L 167 106 L 166 107 Z
  "/>
</svg>
